<mxfile host="app.diagrams.net" agent="Mozilla/5.0 (Windows NT 10.0; Win64; x64) AppleWebKit/537.36 (KHTML, like Gecko) Chrome/139.0.0.0 Safari/537.36" version="28.1.2">
  <diagram id="AttYlrDJAX9aKZHuvHc5" name="Página-1">
    <mxGraphModel dx="1429" dy="1065" grid="0" gridSize="10" guides="0" tooltips="1" connect="0" arrows="1" fold="1" page="1" pageScale="1" pageWidth="2000" pageHeight="1700" background="light-dark(#FFFFFF,#FFFFFF)" math="0" shadow="0">
      <root>
        <mxCell id="0" />
        <mxCell id="1" parent="0" />
        <mxCell id="H_8EhADn51h16BN9ZeOo-1" value="&lt;font style=&quot;font-size: 25px;&quot;&gt;&lt;strong style=&quot;&quot; data-end=&quot;166&quot; data-start=&quot;101&quot;&gt;Hitos del conflicto armado en Colombia en los últimos 50 años&lt;/strong&gt;.&lt;/font&gt;" style="ellipse;whiteSpace=wrap;html=1;fillColor=#d5e8d4;strokeColor=#82b366;gradientColor=#97d077;" vertex="1" parent="1">
          <mxGeometry x="802" y="470" width="420" height="178" as="geometry" />
        </mxCell>
      </root>
    </mxGraphModel>
  </diagram>
</mxfile>
